<svg xmlns="http://www.w3.org/2000/svg" viewBox="0 0 333334 313274" shape-rendering="geometricPrecision" text-rendering="geometricPrecision" image-rendering="optimizeQuality" fill-rule="evenodd" clip-rule="evenodd"><path d="M107261 192182l23826 70078 11982-41584-5874-6427c-2652-3860-3227-7243-1757-10151 3180-6293 9765-5121 15913-5121 6444 0 14400-1219 16417 6845 675 2698-175 5521-2063 8427l-5873 6427 11982 41584 21576-70078c4625 4161 11942 7333 20393 9988 1281-1529 2628-3001 4037-4410 12245-12245 29162-19820 47847-19820s35602 7574 47847 19820c12246 12245 19820 29163 19820 47847 0 18685-7574 35602-19820 47847-12245 12245-29163 19819-47847 19819-14167 0-27317-4356-38186-11799H16461C6124 300686 870 295351 0 286092c2639-17832 3370-41132 14223-55461 3941-5204 8835-9050 14257-12073 17143-9561 63214-12371 78781-26376zm148283 13959h20245c1323 0 2406 1083 2406 2406v24531h24530c1324 0 2406 1083 2406 2406v20245c0 1324-1083 2406-2406 2406h-24530v24530c0 1324-1083 2406-2406 2406h-20245c-1324 0-2406-1082-2406-2406v-24530h-24530c-1324 0-2406-1082-2406-2406v-20245c0-1323 1082-2406 2406-2406h24530v-24531c0-1323 1082-2406 2406-2406zm50867-1279c-10426-10426-24832-16876-40745-16876-15912 0-30318 6450-40744 16876s-16876 24832-16876 40744 6450 30318 16876 40744 24832 16876 40744 16876 30318-6449 40745-16876c10426-10426 16876-24832 16876-40744s-6449-30317-16876-40744zM95818 91993c1847 510 3752 563 5715 173l-3385-26879c1737-6640 4398-11817 7928-15617 3681-3963 8307-6428 13820-7491 7307-516 9502 4813 16793 9469 22201 14180 40961 18967 68390 19303l-3386 17152c-473 705-717 1570-635 2481 13 144 33 285 62 423l-484 2452c751 58 1495 74 2231 44 679 419 1495 629 2351 552 4779-439 7679-2 8476 1607 1080 2181 153 6586-2967 13696l-14997 24702c-5578 9187-11235 18390-18407 25103-6887 6447-15372 10740-26976 10711-10707-27-18812-4159-25489-10265-6953-6358-12548-15006-17885-23494l-13319-21178-1 1-59-91c-4098-6092-6218-11374-6333-15413-39-1368 168-2556 623-3537 406-875 1039-1613 1898-2192 1407-946 3414-1537 6033-1710zm118438-4928l828-34509c-1006-14030-5641-24637-13038-32637C183892 282 149984-4774 124408 4478c-4312 1559-8388 3527-12110 5898-10562 6728-19097 16515-22500 28673-805 2875-1354 5751-1642 8626-556 12087-235 26526 623 38000-1201 451-2288 1007-3261 1661-2070 1392-3604 3193-4602 5346-950 2048-1387 4386-1313 6961 155 5457 2691 12116 7574 19394l13309 21163c5602 8909 11497 18007 19206 25057 7985 7302 17721 12244 30656 12277 13854 35 23983-5089 32203-12783 7933-7426 13878-17088 19728-26724l15176-24996c87-144 163-291 230-441l11 5c4152-9423 5033-15975 2878-20326-1290-2604-3406-4295-6318-5202z"/></svg>