<svg xmlns="http://www.w3.org/2000/svg" viewBox="0 0 333334 276445" shape-rendering="geometricPrecision" text-rendering="geometricPrecision" image-rendering="optimizeQuality" fill-rule="evenodd" clip-rule="evenodd"><path d="M9055 2h315224c4982 0 9055 4077 9055 9053v208831c0 4982-4073 9055-9055 9055H9055c-4976 0-9055-4073-9055-9055V9055C0 4079 4079 0 9055 0v2zm239364 75859l28497 98c-26 7599-3086 14873-8500 20205-1278 1259-2674 2395-4165 3392l-15831-23695zM84442 53501h8684c463 0 841 379 841 840v30934c0 461-379 841-841 841h-8684c-461 0-840-378-840-841V54341c0-461 378-840 840-840zM45178 43044h8683c463 0 841 378 841 841v41391c0 462-378 841-841 841h-8683c-462 0-840-378-840-841V43885c0-463 378-841 840-841zm19632-5883h8683c463 0 841 378 841 841v47274c0 461-379 840-841 840h-8683c-461 0-840-378-840-840V38002c0-462 378-841 840-841zM45682 166485c-1891 0-3424-1549-3424-3459 0-1911 1534-3460 3424-3460h242531c1891 0 3425 1549 3425 3460 0 1910-1534 3459-3425 3459H45682zm-561-25244c-1891 0-3424-1549-3424-3459 0-1911 1534-3460 3424-3460h97251c1891 0 3425 1549 3425 3459 0 1911-1534 3460-3425 3460H45121zm110575 0c-1891 0-3425-1549-3425-3459 0-1911 1534-3460 3425-3460h132517c1891 0 3424 1549 3424 3459 0 1911-1534 3460-3424 3460H155696zM45121 118715c-1891 0-3424-1549-3424-3459s1534-3459 3424-3459h146921c1891 0 3424 1549 3424 3459 0 1911-1533 3459-3424 3459H45121zm200376-48502l-1522-30462c-28-602 437-1113 1038-1141 174-9 382-17 615-24 189-6 394-10 612-12 8367-93 16047 3079 21783 8360 5738 5283 9534 12677 10131 21024 43 601-411 1124-1013 1167l-30474 2178c-602 42-1124-411-1166-1012-2-26-3-52-3-78h-1zm711-29460l1415 28293 28254-2020c-793-7326-4241-13798-9332-18486-5343-4919-12496-7874-20287-7787h-49zm-4125 33805l15276 26459c-4644 2681-9913 4093-15276 4093-16874 0-30553-13678-30553-30552 0-15161 11119-28028 26119-30229l4434 30229zM125573 239461h82191c220 14228 6065 26951 21943 36984H103629c12691-9220 21992-20406 21943-36984h2zm41093-43043c6421 0 11638 5211 11638 11640 0 6421-5217 11632-11638 11632-6423 0-11640-5211-11640-11632 0-6429 5217-11640 11640-11640zM27251 17068h278830c4409 0 8016 3604 8016 8010v156041c0 4406-3612 8010-8016 8010H27251c-4406 0-8010-3604-8010-8010V25076c0-4409 3604-8010 8010-8010v2z"/></svg>