<svg xmlns="http://www.w3.org/2000/svg" viewBox="0 0 305369 333333" shape-rendering="geometricPrecision" text-rendering="geometricPrecision" image-rendering="optimizeQuality" fill-rule="evenodd" clip-rule="evenodd"><path d="M103642 144664c395 185 742 434 1009 743l12029 13964c4826 5603 9886 11312 16181 15515 6058 4044 13413 6782 23131 6800 10528 19 18227-2825 24474-7094 6493-4437 11608-10512 16652-16577l6583-7916c782-942 1077-1287 1377-1638 801-938 1702-1993 2607-3106 229-282 523-518 862-703 1073-3498 1890-7178 2464-11032 1863-12511 1929-22234-3710-33761-4869-9949-11735-15105-19208-18800 8076 9005 14739 17746 12989 24925-9853-10833-20017-20270-30543-28085-21996-11372-34927-26766-40696-45413-32632 32602-38303 70719-26202 112178zm130372 83021c-5753-11545-12545-21911-20219-31621-2057-2106-6087-5636-10474-9477-4682-4100-9757-8544-13507-12229-1530 1318-3138 2573-4850 3742-7395 5053-16508 8420-28972 8396-11635-22-20393-3268-27577-8064-3242-2164-6129-4623-8800-7226-4148 3816-9598 8320-14681 12523-6404 5294-12219 10100-13321 11631-131 182-278 347-437 494-7743 9771-14591 20201-20385 31830l24726-602 10443 17332H35948c-5941 0-10768 5561-9872 12359l10018 75988c-7250 57-14300 140-21102 254-14536 244-16050 1291-14516-19416 19548-92565 13852-96609 90280-126569 2692-2383 6233-5309 9965-8395 5097-4214 10558-8728 14339-12186-1354-1496-2667-3009-3963-4514l-10298-11955-7655 201-14580 384c-12519-14398-11728-45331-10531-63189 5839-35886 19715-61729 42309-76674C125656 576 134793 14 152679 2c15613-11 25190-342 38500 8423 43402 28578 56847 96007 35636 141438h-15153c-336 397-662 778-973 1143l-1351 1581-6583 7916c-2627 3159-5274 6321-8153 9304 3648 3569 8542 7855 13063 11814 2130 1865 4180 3661 6003 5298 67887 27062 82798 42796 91081 130348 1527 16143 1374 15442-14116 15748-6926 137-14087 240-21432 317l10094-76559c896-6796-3932-12359-9873-12359h-70574l10443-17332 24726 602zm-82458 62851c8186 0 14822 6636 14822 14823 0 8186-6636 14822-14822 14822-8187 0-14822-6636-14822-14822 0-8187 6636-14823 14822-14823zm-15892-46121l8856-30735-5524-6044c-2494-3630-3034-6811-1652-9546 2991-5918 9182-4815 14964-4815 6061 0 13542-1147 15439 6437 635 2537-165 5191-1939 7924l-5523 6044 8856 30735h-33476z"/></svg>