<svg xmlns="http://www.w3.org/2000/svg" viewBox="0 0 333334 251614" shape-rendering="geometricPrecision" text-rendering="geometricPrecision" image-rendering="optimizeQuality" fill-rule="evenodd" clip-rule="evenodd"><path d="M157628 103086V85455c786-3204 2250-4853 3905-5147 5747-1023 4820 21550-3905 22778zm54766-12084c12315 13228 31368-4101 49919-8954 10529-2754 16190 15937 29782 9113l1269 14794c8445-1914 2442 24151-4894 22784-2406 7965-3329 13599-7274 18873-7391 9880-19341 14926-28919 14715-9043-198-20548-5165-27913-14277-4532-5607-6001-11767-8820-20374-7803 2324-13038-24119-4548-21854l1400-14819v-1zm53494-41288v3257c0 1511-1237 2747-2747 2747h-5547v5547c0 1511-1236 2747-2748 2747h-3257c-1511 0-2747-1236-2747-2747v-5547h-5546c-1512 0-2748-1236-2748-2747v-3257c0-1511 1236-2747 2748-2747h5546v-5547c0-1511 1236-2748 2747-2748h3257c1512 0 2748 1237 2748 2748v5547h5547c1511 0 2747 1236 2747 2747zm-32328-23155h39315c1363 0 2774 197 4176 564 3033 793 5900 2426 8019 4590 2413 2465 3955 5621 3955 9135 0 956-131 1969-410 3033l-3664 14017c1121 1216 2184 2519 3172 3924 21686 30808 28900 86298-6727 93468 4739 3051 10530 3572 16480 3224 17939 451 30447 8138 35458 25814v50790c-23 4663-2803 7861-9476 8992h-64190l15835-87723c-2017 1553-4149 2888-6337 4001-5609 2854-11604 4255-16931 4138-5027-110-10743-1593-16142-4356-2467-1261-4878-2794-7136-4589l-652-141 16005 88670h-15231c-2441-29998 4363-57643-12279-86467 2941-607 4586-1369 7031-3237-18330-4541-26106-11026-26106-37245v-8943c1148-19604 6082-36961 16655-49667 1568-1885 3571-3645 5906-5241l-2465-9430c-278-1065-410-2077-410-3035 0-3515 1541-6670 3954-9134 2119-2163 4985-3796 8018-4588 1404-367 2816-565 4178-565h-1zm0 5545h39315c5715 0 11834 4864 10390 10390l-2918 11163-1965 7510c-1443 5523-4681 10391-10390 10391h-29552c-5709 0-8944-4861-10390-10391l-2810-10749-2072-7924c-1445-5529 4675-10391 10390-10391l1 1zm49846 168067h20835v4993h-20835v-4993zm-33800 43945l-10609-53924c8310 1760 17051 1931 26361 0l-10127 53924h-5626 1zm-1783-113711c-493-474-526-1280-76-1798 451-519 1216-555 1708-80 872 840 1707 1239 2506 1230 805-10 1656-439 2547-1255 506-460 1271-402 1709 130 437 531 382 1337-124 1797-1328 1216-2698 1857-4113 1874-1421 17-2808-599-4157-1898zm31703-24508c517 449 589 1254 161 1797-427 544-1192 619-1708 170-2309-2014-6869-1147-10783-404-2051 390-3943 749-5439 693-668-25-1191-615-1167-1319 23-703 584-1253 1252-1228 1245 47 3012-289 4927-652 4429-842 9588-1822 12757 944zm-42084 11078c116 334 179 695 179 1072 0 1721-1320 3116-2949 3116s-2950-1395-2950-3116c0-615 169-1188 459-1670-1632 100-3270 476-4912 1154-569 234-1189-131-1383-816-196-686 108-1432 677-1667 2204-911 4417-1332 6635-1315 2215 17 4416 469 6601 1304 574 218 892 956 711 1647s-793 1074-1366 856c-568-217-1135-406-1702-565zm29215-277c-103 318-159 659-159 1014 0 1721 1320 3117 2949 3117s2950-1396 2950-3117c0-546-133-1059-367-1505 1609 106 3235 442 4875 1009 578 198 1181-206 1345-902 165-696-170-1423-749-1620-2211-764-4417-1141-6619-1139-2197 3-4376 387-6537 1144-576 201-907 927-741 1620 167 694 769 1093 1345 892 569-199 1138-370 1708-511v-1zm-40517-8507c-516 449-1281 374-1708-169-426-543-354-1349 161-1798 3169-2765 8329-1785 12758-944 1915 363 3681 699 4926 652 668-25 1229 526 1252 1229 23 702-500 1294-1167 1319-1498 56-3388-303-5439-693-3915-743-8476-1609-10783 404h-1zm15362 32710c-521-441-604-1244-184-1793 419-549 1181-636 1702-194 3320 2805 6435 4183 9348 4172 2863-12 5608-1387 8236-4092 479-491 1246-480 1712 25 467 505 456 1312-24 1802-3089 3179-6396 4798-9925 4812-3479 14-7100-1549-10866-4732zM51777 203872c3769 0 6823 3055 6823 6823 0 3769-3054 6823-6823 6823-3768 0-6823-3055-6823-6823s3055-6823 6823-6823zM79044 76759c-736 274-1538-152-1789-952-252-800 140-1673 875-1947 2840-1063 5693-1556 8551-1535 2841 20 5677 549 8506 1529 738 255 1146 1113 913 1917s-1023 1249-1761 994c-939-326-1878-596-2815-809 93 323 144 664 144 1016 0 2087-1765 3780-3944 3780s-3944-1693-3944-3780c0-513 107-1002 300-1448-1675 200-3355 605-5037 1235l1 1zm45822-1131c-166 418-288 64-288 1344s1766 3779 3945 3779c2180 0 3945-1693 3945-3779 0-598-146-1165-406-1670 1723 179 3460 542 5211 1090 748 232 1527-241 1741-1055 212-814-221-1662-969-1892-2849-893-5692-1332-8528-1330-2831 3-5640 452-8424 1335-744 235-1173 1082-958 1893s996 1277 1740 1043c985-314 2002-566 2991-758v-1zm-16744 166219L76371 136391l9611 9013 2-2c67 63 137 124 211 182 1410 1114 2881 1985 4397 2663 1504 672 3075 1167 4696 1531 2818 633 9035 1035 14928 1042 5260 6 10399-316 12897-1085 1681-517 3300-1247 4850-2205 1522-941 2985-2104 4384-3507l7259-6750-31485 104573v1zM75559 135629c-7550 8492-17156 10574-27636 9929-2969 79-5826 317-8563 723-3008 9563-3796 18369-2644 26428 1120 7841 4085 15015 8631 21528 1993-780 4162-1207 6433-1207 9756 0 17665 7909 17665 17666 0 9756-7909 17665-17665 17665s-17665-7909-17665-17665c0-5200 2247-9875 5823-13107-4999-7246-8265-15239-9515-23983-1144-8008-589-16618 1882-25830-42340 11926-30896 67838-30896 103839h213431c0-35660 11194-92571-31536-104014 436 2019 671 4166 707 6340 48 2866-250 5807-892 8588 994 350 1964 731 2906 1151 1935 861 3699 1868 5240 3081 5093 4009 7237 8819 7835 14062 555 4865-288 9929-1259 15036l-19 91c-83 459-266 1519-450 2591-1227 7126-2603 15108-8001 20520-1919 1924-4120 3269-6617 4008-313 93-630 176-952 249-1226 2106-3508 3522-6120 3522-3909 0-7078-3169-7078-7077 0-3909 3169-7076 7078-7076 2767 0 5162 1588 6326 3901 1036-461 1988-1132 2859-2006 3973-3983 5168-10919 6235-17111 117-678 230-1339 473-2660l20-121c878-4615 1643-9159 1186-13170-414-3633-1905-6970-5446-9757-1135-893-2447-1640-3897-2286-1507-671-3224-1254-5085-1787l3-11c-55-16-110-32-165-51-316-109-603-263-858-452-315 37-640 27-968-35-2266-441-4573-608-6707-521-2090 87-3994 411-5498 955-8210 2969-9989 11206-11726 19252l-30 122c-129 598-273 1260-536 2426-344 1528-694 2856-1031 4141-1225 4658-2296 8735-795 13617 385 1248 809 2348 1278 3278 1293-1404 3147-2284 5205-2284 3909 0 7078 3169 7078 7077s-3169 7078-7078 7078c-2606 0-4881-1409-6110-3505-766-463-1483-1043-2153-1733-1848-1906-3246-4650-4291-8044-2035-6616-750-11509 720-17099 341-1298 694-2638 982-3917 91-400 298-1363 516-2376 7-41 14-81 24-122 2104-9741 4258-19711 15782-23878 2112-764 4678-1216 7414-1328 2452-100 5056 66 7599 517 476-2179 696-4487 658-6752-47-2843-502-5576-1364-7841-2560-355-5220-567-7980-640-10334 635-19820-1380-27321-9580l716-667c985-916 2024-1854 3017-2750 7990-7206 13146-11859 12573-25436 1-38 3-76 3-115v-864c255 23 517 19 782-19 6043-849 9299-7935 10079-14728 214-1870 253-3718 119-5382-143-1781-493-3422-1045-4756-1109-2672-2961-4248-5600-4059l3271-1957c385-5074 1632-11962 2609-18459 454-3019 618-5886 547-8620 1767-14398-1151-24524-8001-31059C147049 4334 129105-369 108060 27 89165-116 75444 5316 65721 15057c-10213-1474-16439 3669-18054 16470v10705c385 6636 2534 9002 5179 8491 68 1131 171 2277 345 3450 1087 7296 2819 15196 3495 21613l2460 1322v2361c-1102-1201-2415-1915-3857-2172-3008-535-5086 1074-6289 3973-553 1333-903 2975-1045 4756-135 1665-96 3513 119 5383 779 6792 4036 13879 10080 14728 338 47 673 42 993-9v5813h8c0 206 22 415 67 625 2248 10327 4926 12718 10571 17758 1004 898 2111 1885 3226 2933l2539 2381v-4zm78408-72731c-30869-21168-49858-38692-75571-23096-9154 5553-11995 16930-16165 23271v48858c2432 11176 5432 12118 12906 19127l12963 12157c2344 1852 4980 2937 7787 3567 4927 1107 21484 1458 26119 31 2817-867 5468-2469 7926-4942l9421-8761c9096-8458 15271-12103 14614-26101V62897zm-62586-2769c1237-51 2284 869 2337 2054s-907 2188-2144 2239c-3440 153-6369 818-8826 1959-2390 1110-4345 2685-5896 4687-737 952-2142 1153-3137 446-994-706-1202-2052-465-3006 1987-2563 4489-4579 7549-6000 2993-1390 6509-2199 10583-2381v1zm35369 3864c-1237-5-2237-970-2232-2155 4-1185 1012-2143 2249-2138 3710 16 7101 683 10149 2054 3074 1382 5767 3463 8046 6293 757 939 576 2288-404 3014-980 725-2388 552-3146-387-1836-2280-3975-3943-6393-5030-2447-1101-5211-1637-8269-1650v-1zm-23522 37872c-776-622-878-1729-228-2472 649-744 1804-843 2580-220 913 734 1791 1124 2630 1133 848 10 1764-359 2756-1139 780-615 1931-507 2572 240 641 748 528 1850-251 2465-1687 1331-3394 1956-5119 1936-1733-20-3377-688-4940-1943zm-5751 23147c-940-478-1297-1596-798-2497 499-900 1667-1243 2606-765 2966 1509 5886 2277 8757 2283 2868 6 5742-744 8622-2269 931-490 2102-164 2614 728 511 893 170 2014-762 2504-3448 1826-6941 2724-10476 2716-3532-9-7054-915-10563-2702v1zm-38860-21926V85455c-787-3204-2250-4853-3906-5147-5746-1023-4820 21550 3906 22778zm46380 102615l-12463-50560c10902 2433 19457 2670 31671 0l-11829 50560h-7380z"/></svg>